# xmcd
#
# Track frame offsets: 
#        150
#        19572
#        35852
#        53717
#        71915
#        87827
#        102905
#        118832
#        136895
#        152710
#
# Disc length: 2283 seconds
#
# Revision: 1
# Processed by: cddbd v1.4PL0 Copyright (c) Steve Scherf et al.
# Submitted via: ExactAudioCopy v0.90b3
#
DISCID=8508e90a
DTITLE=Lila McCann - Super Hits
DYEAR=2002
DGENRE=Country
TTITLE0=I Wanna Fall In Love
TTITLE1=Come A Little Closer
TTITLE2=Down Came A Blackbird
TTITLE3=Kiss Me Now
TTITLE4=Almost Over You
TTITLE5=Crush
TTITLE6=With You
TTITLE7=I Will Be
TTITLE8=Because Of You
TTITLE9=Yippy Ky Yay
EXTD=
EXTT0=
EXTT1=
EXTT2=
EXTT3=
EXTT4=
EXTT5=
EXTT6=
EXTT7=
EXTT8=
EXTT9=
PLAYORDER=
